<?xml version="1.0" standalone="no"?>
<!DOCTYPE svg PUBLIC "-//W3C//DTD SVG 20010904//EN"
 "http://www.w3.org/TR/2001/REC-SVG-20010904/DTD/svg10.dtd">
<svg version="1.0" xmlns="http://www.w3.org/2000/svg"
 width="639.000000pt" height="639.000000pt" viewBox="0 0 639.000000 639.000000"
 preserveAspectRatio="xMidYMid meet">

<g transform="translate(0.000000,639.000000) scale(0.100000,-0.100000)"
fill="#000000" stroke="none">
<path d="M2897 5873 c-12 -3 -17 -11 -14 -23 3 -12 0 -17 -8 -13 -14 5 -55
-30 -55 -47 0 -6 -21 -59 -47 -118 -41 -94 -47 -116 -49 -187 -4 -125 -24
-222 -51 -249 -21 -22 -22 -27 -12 -78 10 -51 9 -58 -16 -107 -14 -29 -24 -59
-21 -67 3 -8 -1 -14 -9 -14 -8 0 -15 -6 -15 -14 0 -7 -13 -27 -29 -42 -34 -35
-41 -60 -26 -97 8 -19 9 -52 3 -104 -5 -42 -6 -78 -3 -81 3 -3 5 4 5 16 0 11
5 24 10 27 20 12 9 -46 -26 -147 -19 -57 -36 -110 -35 -118 0 -20 -18 -98 -31
-132 -13 -35 -3 -51 22 -38 23 12 40 -7 19 -21 -13 -8 -5 -13 15 -10 5 1 6
-30 1 -76 -4 -43 -8 -93 -7 -110 0 -21 -4 -33 -12 -33 -27 0 -36 -25 -21 -54
19 -35 19 -67 1 -91 -12 -17 -11 -21 10 -38 13 -10 24 -23 24 -28 0 -5 12 -28
26 -50 16 -26 24 -49 20 -63 -7 -28 11 -78 50 -142 24 -37 29 -55 22 -67 -5
-10 -6 -22 -2 -28 12 -19 23 -81 17 -95 -4 -11 -9 -12 -19 -3 -12 10 -14 0
-15 -57 -4 -317 -11 -479 -23 -539 -8 -38 -14 -104 -14 -145 0 -48 -8 -100
-22 -143 -12 -38 -23 -92 -25 -120 -3 -33 -9 -54 -20 -60 -20 -11 -33 -44 -51
-127 -22 -107 -35 -138 -59 -144 -12 -3 -26 -16 -32 -29 -6 -13 -28 -32 -50
-42 -21 -10 -43 -25 -49 -33 -6 -8 -16 -12 -22 -8 -6 4 -21 1 -32 -6 -17 -11
-22 -11 -29 1 -9 13 -47 10 -206 -19 -33 -6 -103 -18 -155 -27 -52 -9 -104
-19 -115 -24 -11 -4 -32 -10 -47 -13 -15 -4 -26 -12 -24 -19 1 -6 1 -9 -1 -4
-3 4 -11 7 -18 7 -17 0 -16 -68 1 -94 7 -10 10 -31 7 -46 -4 -22 -1 -28 16
-33 12 -3 21 -12 21 -21 0 -9 4 -16 9 -16 5 0 7 9 4 20 -5 20 4 26 22 12 6 -4
10 -52 10 -107 0 -106 0 -106 -60 -128 -5 -3 -7 -7 -4 -11 3 -3 33 5 67 19
l61 25 44 -30 c53 -36 63 -47 69 -83 6 -30 -3 -35 -22 -12 -18 21 -29 19 -40
-9 -6 -18 -21 -28 -50 -36 -22 -6 -44 -8 -49 -5 -5 3 -11 0 -13 -5 -2 -6 -14
-12 -28 -13 -14 -1 -35 -8 -47 -15 -12 -6 -38 -14 -57 -16 -20 -3 -52 -16 -72
-30 -21 -14 -42 -22 -47 -19 -15 9 -24 -16 -21 -58 2 -22 0 -37 -5 -34 -5 3
-14 -9 -20 -26 -7 -22 -15 -29 -26 -25 -10 4 -15 -1 -15 -15 0 -16 4 -19 20
-14 11 4 20 2 20 -4 0 -6 -9 -11 -20 -11 -11 0 -20 -4 -20 -10 0 -5 -5 -10
-11 -10 -7 0 -8 11 -4 30 7 31 0 36 -24 21 -8 -5 -11 -16 -6 -30 5 -16 -1 -29
-23 -52 -19 -19 -32 -26 -37 -20 -11 19 -45 13 -45 -8 0 -21 -16 -30 -42 -23
-24 6 -23 34 2 50 12 7 18 17 14 23 -4 7 -11 6 -20 -2 -11 -9 -14 -8 -14 2 0
10 -5 8 -17 -4 -14 -14 -15 -21 -6 -35 8 -14 7 -26 -3 -51 -10 -24 -11 -44 -5
-73 12 -53 18 -56 26 -16 8 38 23 60 36 52 10 -6 12 -48 2 -57 -3 -4 -8 -33
-10 -64 -3 -51 -40 -195 -43 -168 -1 6 -5 0 -10 -12 -5 -13 -15 -23 -21 -23
-7 0 -9 8 -4 23 17 56 17 67 2 67 -21 0 -37 30 -37 69 0 16 -4 33 -10 36 -5 3
-10 20 -10 37 0 23 4 29 15 24 9 -3 15 0 15 9 0 9 5 24 12 35 7 10 9 22 6 26
-10 9 -40 -24 -33 -36 11 -17 -7 -11 -22 8 -13 16 -14 16 -26 -1 -7 -10 -20
-28 -30 -39 -9 -12 -17 -24 -18 -27 -1 -6 -3 -17 -15 -78 -3 -18 -10 -33 -15
-33 -5 0 -7 10 -5 23 3 12 7 35 11 50 5 23 3 26 -7 16 -7 -6 -14 -34 -15 -62
-1 -28 -5 -53 -10 -56 -19 -14 -33 -53 -33 -91 0 -22 -5 -40 -11 -40 -6 0 -3
-7 6 -16 9 -9 15 -28 13 -43 -3 -22 -7 -26 -30 -23 -20 2 -32 -4 -44 -24 -16
-24 -19 -25 -30 -9 -13 18 -18 13 -28 -28 -8 -32 -21 -35 -36 -8 -5 11 -19 22
-29 26 -11 3 -23 15 -26 26 -6 17 -8 18 -22 3 -15 -15 -15 -18 8 -34 20 -16
24 -27 24 -79 0 -41 4 -61 12 -61 6 0 15 -9 18 -20 3 -11 12 -20 18 -20 27 1
45 29 56 90 11 58 52 133 64 120 3 -3 2 -38 -2 -78 -7 -72 2 -102 21 -68 9 16
59 46 78 46 5 0 10 -7 10 -15 0 -8 7 -15 15 -15 8 0 15 7 15 15 0 8 14 30 31
50 l32 36 13 -23 c25 -43 26 -48 18 -65 -7 -16 -8 -16 -11 3 -4 19 -7 20 -28
10 -15 -7 -25 -19 -25 -33 0 -30 -20 -40 -36 -18 -13 17 -16 16 -52 -23 -22
-23 -48 -42 -58 -42 -20 0 -44 -17 -44 -32 0 -12 48 -10 55 2 3 6 10 10 16 10
17 0 9 -24 -18 -52 -22 -23 -23 -28 -10 -28 10 0 22 11 27 24 5 13 25 36 45
52 47 36 60 24 64 -58 1 -27 140 -26 164 0 19 20 23 67 7 77 -5 3 -10 18 -10
33 0 21 2 24 10 12 9 -15 14 -16 53 -19 16 -1 17 -8 11 -61 -7 -59 -6 -60 19
-60 14 0 27 7 31 15 3 8 12 15 21 15 8 0 15 -7 15 -15 0 -13 22 -15 134 -15
98 0 136 3 140 13 5 10 7 10 12 0 8 -18 150 -18 157 0 4 9 6 9 6 0 1 -10 271
-13 1316 -13 l1315 0 0 29 c0 34 18 51 31 30 7 -12 9 -11 9 1 0 13 2 13 9 1 6
-9 6 -22 0 -33 -7 -14 -6 -20 7 -25 19 -7 34 12 34 44 0 39 17 34 24 -7 5 -30
11 -40 25 -40 24 0 32 22 14 35 -15 11 -8 69 7 60 4 -3 13 2 20 10 7 8 16 15
20 15 16 0 18 -44 4 -71 -18 -36 -18 -49 1 -49 8 0 15 7 15 15 0 8 5 15 11 15
6 0 9 -7 5 -15 -4 -12 7 -15 67 -15 l72 0 2 58 c1 31 2 63 2 70 1 7 6 10 11 7
6 -3 9 -25 9 -48 -3 -68 7 -87 45 -87 33 0 33 1 41 58 10 83 27 113 21 36 -3
-33 -8 -68 -12 -77 -3 -9 -1 -17 4 -17 6 0 13 8 15 17 4 17 5 17 6 1 1 -21 31
-24 31 -4 0 8 -8 22 -17 31 -15 15 -15 24 -4 74 34 158 52 287 41 309 -6 13
-8 28 -5 33 3 5 10 32 15 61 49 278 57 310 88 365 7 12 12 32 12 45 0 13 7 34
16 46 14 21 14 23 -10 34 -46 20 -31 62 39 112 16 12 18 18 9 33 -6 10 -7 28
-3 43 30 95 40 142 35 158 -8 23 15 45 41 40 23 -3 43 9 43 28 0 11 -10 14
-36 12 -31 -2 -42 4 -70 35 -19 20 -40 37 -48 37 -18 0 -31 51 -16 60 8 5 4 9
-9 13 -18 4 -19 1 -14 -24 4 -23 2 -29 -12 -29 -13 0 -16 -5 -11 -22 3 -13 6
-34 6 -48 l0 -24 16 22 16 23 15 -20 c8 -12 23 -21 33 -21 25 0 34 -16 16 -32
-9 -9 -11 -20 -5 -34 11 -30 0 -37 -27 -19 -20 13 -23 12 -28 -2 -4 -10 -1
-20 9 -25 19 -11 20 -32 0 -24 -8 3 -15 1 -15 -4 0 -14 -27 -12 -36 2 -4 6 -2
14 4 16 18 6 14 26 -10 51 l-21 23 -13 -23 c-7 -13 -14 -35 -14 -49 l-2 -25
-10 28 c-10 29 -28 28 -28 -3 0 -10 -7 -21 -16 -24 -11 -4 -15 -15 -12 -36 3
-16 0 -32 -6 -34 -7 -3 -5 -10 6 -18 29 -24 27 -67 -2 -65 -13 1 -20 9 -20 22
-1 35 -16 -3 -34 -83 -18 -81 -54 -191 -67 -208 -5 -6 -6 -14 -2 -17 3 -4 1
-12 -4 -19 -5 -7 -8 -33 -7 -58 2 -25 -3 -54 -10 -65 -20 -31 -36 -85 -26 -85
6 0 6 -9 1 -22 -15 -42 -22 -116 -11 -123 15 -9 12 -51 -5 -65 -29 -24 -34 2
-20 105 18 127 19 165 2 165 -9 0 -17 -27 -25 -85 -18 -136 -33 -140 -28 -7 3
77 2 110 -6 106 -7 -4 -8 6 -4 32 3 22 7 55 8 74 1 19 6 40 11 47 14 19 0 31
-28 25 -18 -3 -24 -9 -21 -21 5 -15 9 -150 7 -198 -1 -14 -7 -23 -16 -23 -9 0
-20 -10 -26 -22 -5 -13 -16 -34 -24 -47 -7 -14 -11 -29 -8 -34 3 -5 12 1 19
14 13 22 14 20 11 -30 -2 -50 -4 -55 -29 -62 -16 -4 -30 -4 -32 0 -3 4 6 53
20 110 25 109 30 151 15 151 -5 0 -12 -15 -15 -34 -12 -63 -37 -136 -46 -136
-19 0 -21 46 -5 118 8 40 15 93 15 117 0 35 6 52 30 78 36 42 37 49 6 41 -18
-4 -25 -1 -29 16 -5 21 -6 21 -24 3 -10 -10 -24 -26 -31 -35 -11 -14 -10 -16
7 -11 29 7 27 -18 -4 -55 -14 -17 -25 -36 -25 -43 1 -10 5 -9 14 4 13 17 14
16 19 -3 6 -23 -12 -100 -23 -100 -11 0 -20 27 -20 60 0 16 -7 30 -15 34 -8 3
-15 16 -15 29 0 13 -9 32 -20 42 -11 10 -17 21 -15 25 2 4 -4 15 -15 25 -20
18 -20 18 -4 -20 20 -49 15 -114 -14 -175 -19 -40 -21 -42 -22 -17 0 15 -4 27
-10 27 -5 0 -10 6 -10 14 0 8 -10 16 -22 18 -25 3 -26 5 -27 177 -1 92 8 123
32 118 8 -1 11 9 9 28 -2 17 2 74 8 128 12 92 14 99 41 112 38 20 49 19 82
-10 19 -17 27 -34 28 -57 0 -31 1 -32 10 -9 8 19 12 21 24 11 9 -7 18 -11 21
-8 3 3 -10 18 -28 33 -81 68 -68 93 18 35 33 -22 64 -40 69 -40 13 1 -47 50
-61 50 -18 0 -74 65 -74 87 0 12 8 41 18 65 11 24 17 49 15 56 -3 7 1 11 9 10
8 -2 12 5 10 22 -2 19 0 22 9 13 14 -14 59 11 59 32 0 7 6 15 12 17 8 3 1 19
-20 45 -17 23 -32 45 -32 49 0 5 -59 23 -131 41 -168 40 -191 58 -90 70 83 10
64 35 -30 39 -59 2 -89 12 -71 23 12 7 3 111 -9 111 -5 0 -9 -4 -9 -9 0 -5 -9
-7 -20 -4 -13 3 -20 0 -20 -8 0 -11 -25 -14 -126 -12 -74 1 -131 6 -137 12
-14 14 -11 16 56 32 32 8 57 19 55 24 -4 12 -122 8 -195 -6 -29 -6 -56 -10
-60 -10 -12 1 -14 69 -2 77 6 4 6 11 -2 20 -9 11 -7 14 9 14 25 0 34 20 17 40
-7 8 -18 66 -24 129 -7 62 -19 142 -27 177 -9 40 -20 189 -29 387 -8 177 -21
417 -29 532 -19 274 -29 575 -20 610 7 26 8 27 20 10 20 -27 23 -16 14 35 -5
25 -9 64 -10 88 0 35 3 42 17 40 22 -4 35 53 23 107 -5 22 -14 63 -20 90 -9
45 -4 123 8 111 2 -3 11 1 18 9 8 7 19 16 26 19 10 5 10 7 1 12 -15 7 -17 44
-3 44 21 0 9 20 -15 26 -33 8 -39 34 -39 172 1 61 -2 112 -6 112 -6 0 -30 44
-30 56 0 3 5 2 12 -2 7 -5 9 -2 5 9 -4 11 2 18 21 25 l27 9 -35 18 c-53 26
-123 127 -75 109 22 -9 19 3 -12 41 -20 24 -31 31 -39 24 -15 -13 -34 16 -27
41 3 10 0 21 -6 24 -6 4 -11 17 -11 29 0 12 -11 34 -24 49 -23 28 -39 29 -29
2 3 -8 0 -21 -7 -29 -11 -13 -10 -14 4 -9 12 5 18 -1 22 -25 5 -21 12 -31 25
-31 11 0 19 -4 19 -10 0 -17 -21 -11 -54 16 -35 30 -48 56 -33 65 6 4 1 19
-12 37 -26 37 -26 42 0 42 19 0 19 2 5 28 -8 15 -17 35 -20 45 -3 9 -10 17
-16 17 -13 0 -13 -17 0 -25 16 -10 12 -55 -5 -55 -9 0 -17 14 -21 38 -3 20
-17 53 -29 72 -13 19 -27 49 -31 65 -7 32 -43 98 -56 103 -4 2 -8 11 -8 20 0
10 -14 29 -32 44 -32 27 -33 28 -10 34 31 9 28 24 -6 24 -18 0 -44 13 -69 35
-23 19 -46 35 -52 35 -6 0 -11 6 -11 14 0 8 -7 17 -16 20 -18 7 -79 6 -107 -1z
m-6 -166 c-10 -9 -11 -8 -5 6 3 10 9 15 12 12 3 -3 0 -11 -7 -18z m39 13 c0
-5 -5 -10 -11 -10 -5 0 -7 5 -4 10 3 6 8 10 11 10 2 0 4 -4 4 -10z m70 -31 c0
-14 -17 -10 -23 5 -4 10 -1 13 9 9 7 -3 14 -9 14 -14z m35 -79 c3 -5 1 -10 -4
-10 -6 0 -11 5 -11 10 0 6 2 10 4 10 3 0 8 -4 11 -10z m55 -44 c0 -6 7 -2 15
8 14 19 15 19 15 -6 0 -14 6 -31 14 -38 8 -6 16 -21 18 -33 2 -13 10 -21 20
-21 10 1 14 -4 11 -12 -3 -8 -10 -11 -17 -7 -6 4 -16 8 -23 8 -17 0 -83 95
-83 119 0 11 30 -7 30 -18z m157 -168 c-3 -8 -6 -5 -6 6 -1 11 2 17 5 13 3 -3
4 -12 1 -19z m63 -94 c0 -8 -4 -12 -10 -9 -5 3 -10 13 -10 21 0 8 5 12 10 9 6
-3 10 -13 10 -21z m214 -173 c3 -5 -1 -11 -9 -15 -9 -3 -15 0 -15 9 0 16 16
20 24 6z m-219 -181 c3 -5 -1 -10 -10 -10 -9 0 -13 5 -10 10 3 6 8 10 10 10 2
0 7 -4 10 -10z m75 -14 c0 -8 -6 -16 -14 -19 -10 -4 -12 0 -9 14 6 22 23 26
23 5z m-113 -36 c-11 -30 -37 -49 -37 -28 0 10 38 58 46 58 1 0 -3 -13 -9 -30z
m17 -47 c-18 -28 -18 -28 2 -10 19 16 46 25 31 11 -3 -4 -2 -15 4 -25 5 -11 6
-19 2 -19 -4 -1 -27 -5 -50 -9 -41 -8 -42 -7 -40 18 1 14 11 32 22 40 11 8 24
22 29 30 6 10 11 12 13 4 3 -7 -4 -24 -13 -40z m82 12 c-4 -14 -11 -25 -16
-25 -5 0 -5 13 2 31 12 35 23 31 14 -6z m84 31 c0 -3 -4 -8 -10 -11 -5 -3 -10
-1 -10 4 0 6 5 11 10 11 6 0 10 -2 10 -4z m-45 -126 c-2 -14 -4 -29 -4 -35 -1
-5 -8 3 -17 20 -13 25 -13 36 -3 75 l13 45 7 -40 c4 -22 5 -51 4 -65z m53 11
c-5 -100 -22 -108 -26 -12 -3 81 2 106 19 95 7 -4 9 -34 7 -83z m-288 72 c0
-5 -7 -17 -15 -27 -15 -20 -15 -20 -15 0 0 12 3 24 7 27 9 9 23 9 23 0z m40
-19 c0 -8 -4 -12 -10 -9 -5 3 -10 1 -10 -4 0 -6 -5 -11 -12 -11 -6 0 -3 9 7
20 22 24 25 25 25 4z m106 -70 c-19 -19 -21 -11 -4 16 7 11 14 16 16 10 2 -5
-4 -17 -12 -26z m-562 -5 c19 -38 16 -45 -21 -43 -28 2 -30 5 -18 37 4 10 3
17 -5 17 -6 0 -8 5 -5 10 12 19 34 10 49 -21z m244 0 c-8 -25 -8 -33 3 -40 13
-8 6 -13 -14 -10 -4 1 -15 -15 -24 -34 -16 -34 -41 -51 -29 -20 9 23 -4 45
-26 45 -17 0 -19 2 -7 16 7 8 25 22 41 30 15 8 28 21 28 29 0 8 9 15 19 15 18
0 19 -3 9 -31z m538 -54 c9 -92 -3 -81 -14 13 -5 40 -5 69 -1 65 4 -5 11 -39
15 -78z m-681 44 c-10 -15 -25 -10 -19 6 4 8 10 12 15 9 5 -3 7 -10 4 -15z
m227 -25 c-22 -29 -25 -25 -11 15 8 23 14 29 19 20 5 -7 1 -22 -8 -35z m167 2
c-7 -14 -18 -26 -26 -26 -11 0 -11 4 -2 23 12 22 31 39 37 33 1 -2 -3 -15 -9
-30z m47 -8 c-3 -13 -6 -29 -6 -35 0 -7 -4 -13 -8 -13 -4 0 -6 16 -4 35 2 19
9 35 14 35 6 0 8 -10 4 -22z m-719 -10 c-3 -8 -6 -5 -6 6 -1 11 2 17 5 13 3
-3 4 -12 1 -19z m433 -58 c-6 -11 -12 -20 -14 -20 -2 0 -2 9 1 20 3 11 9 20
15 20 5 0 4 -9 -2 -20z m-39 -43 c-10 -9 -11 -8 -5 6 3 10 9 15 12 12 3 -3 0
-11 -7 -18z m165 -84 c-7 -7 -26 7 -26 19 0 6 6 6 15 -2 9 -7 13 -15 11 -17z
m-528 -34 c-17 -10 -28 -2 -21 17 4 11 8 12 20 3 11 -10 11 -14 1 -20z m197
-1 c-4 -34 -5 -35 -16 -15 -10 17 -5 37 10 37 5 0 7 -10 6 -22z m298 -34 c-3
-8 -7 -14 -10 -14 -3 0 -3 6 0 14 3 7 0 20 -6 27 -10 11 -9 11 5 0 9 -7 14
-19 11 -27z m-348 -4 c3 -5 1 -10 -4 -10 -6 0 -11 5 -11 10 0 6 2 10 4 10 3 0
8 -4 11 -10z m491 -47 c-6 -15 -48 -12 -53 4 -2 5 4 16 14 24 11 9 14 10 9 2
-4 -7 -2 -13 3 -13 6 0 11 10 12 23 0 22 0 22 10 -2 5 -14 7 -31 5 -38z m-422
24 c7 -11 7 -20 0 -27 -6 -6 -13 0 -21 21 -13 33 1 37 21 6z m-138 -10 c3 -21
-30 -40 -56 -32 -11 4 -20 15 -20 27 0 16 5 19 25 16 14 -3 25 -1 25 4 0 17
23 3 26 -15z m398 17 c17 -7 22 -34 6 -34 -5 0 -10 5 -10 11 0 8 -5 8 -15 -1
-16 -14 -18 -10 -9 14 7 18 7 18 28 10z m76 -24 c0 -6 -9 -18 -20 -27 -11 -10
-20 -21 -20 -26 0 -12 -54 -77 -64 -77 -5 0 -3 6 3 14 10 11 8 16 -5 24 -16 9
-15 10 3 16 12 4 24 13 27 21 3 8 10 15 17 15 6 0 20 11 31 25 21 27 28 31 28
15z m-130 -20 c0 -5 -5 -10 -11 -10 -5 0 -7 5 -4 10 3 6 8 10 11 10 2 0 4 -4
4 -10z m-176 -15 c-4 -8 -11 -15 -16 -15 -6 0 -5 6 2 15 7 8 14 15 16 15 2 0
1 -7 -2 -15z m-162 -17 c-7 -7 -12 -8 -12 -2 0 6 3 14 7 17 3 4 9 5 12 2 2 -3
-1 -11 -7 -17z m-133 -24 c-15 -18 -22 -13 -13 10 3 9 10 13 16 10 5 -3 4 -12
-3 -20z m474 -4 c-3 -11 -9 -20 -14 -20 -11 0 -11 3 -3 24 9 23 23 20 17 -4z
m-73 -15 c-7 -8 -17 -12 -22 -9 -6 4 -5 10 3 15 22 14 33 10 19 -6z m-268 -49
c1 -20 -2 -39 -5 -43 -4 -3 -7 15 -7 42 0 55 10 56 12 1z m312 -7 c14 12 14
10 0 -18 -9 -17 -18 -31 -20 -31 -3 0 -2 5 1 10 14 22 -10 8 -42 -25 -35 -36
-59 -46 -50 -21 9 23 -26 25 -50 3 -41 -37 -24 -3 20 39 48 46 75 65 61 43 -6
-10 -2 -10 16 2 23 15 26 15 36 1 10 -14 14 -14 28 -3z m-355 -95 l-13 -29 -4
29 c-2 16 1 33 7 39 6 6 12 25 13 42 1 23 2 21 5 -11 2 -22 -2 -53 -8 -70z
m201 62 c0 -3 -4 -8 -10 -11 -5 -3 -10 -1 -10 4 0 6 5 11 10 11 6 0 10 -2 10
-4z m175 -67 c-9 -17 -14 -33 -11 -37 3 -3 6 0 6 6 0 6 10 17 23 23 20 11 21
11 7 -6 -8 -10 -15 -23 -16 -29 0 -6 -2 -19 -2 -28 -1 -10 -7 -18 -13 -18 -6
0 -9 8 -7 18 6 20 -16 23 -42 7 -28 -18 -41 -15 -29 7 10 18 9 19 -13 7 -22
-12 -22 -11 -8 6 14 17 13 18 -16 12 -23 -4 -31 -2 -31 9 0 12 9 14 36 10 24
-3 43 1 61 13 25 18 47 29 63 30 4 1 0 -13 -8 -30z m-425 -21 c0 -21 -3 -29
-10 -22 -5 5 -7 19 -4 32 9 31 14 27 14 -10z m933 -9 c3 -13 1 -19 -6 -16 -15
5 -22 37 -9 37 5 0 12 -9 15 -21z m-690 -6 c-4 -11 -3 -14 6 -9 9 6 9 3 -1
-13 -7 -12 -16 -21 -20 -21 -14 0 -15 26 0 43 19 21 23 22 15 0z m-143 -7 c0
-2 -7 -7 -16 -10 -8 -3 -12 -2 -9 4 6 10 25 14 25 6z m832 -48 c-7 -7 -12 -8
-12 -2 0 6 3 14 7 17 3 4 9 5 12 2 2 -3 -1 -11 -7 -17z m-932 -3 c0 -8 -4 -15
-10 -15 -5 0 -10 7 -10 15 0 8 5 15 10 15 6 0 10 -7 10 -15z m64 -4 c3 -5 -1
-12 -10 -15 -8 -3 -12 -10 -9 -16 3 -5 1 -10 -4 -10 -12 0 -14 11 -5 34 7 18
20 21 28 7z m33 -33 c-3 -7 -5 -2 -5 12 0 14 2 19 5 13 2 -7 2 -19 0 -25z m43
2 c0 -5 -5 -10 -11 -10 -5 0 -7 5 -4 10 3 6 8 10 11 10 2 0 4 -4 4 -10z m220
-10 c-6 -11 -15 -20 -21 -20 -6 0 -8 -4 -5 -9 3 -5 -3 -11 -14 -14 -26 -7 -25
-3 7 33 30 34 49 40 33 10z m-396 -44 c-7 -18 -44 -28 -44 -12 0 18 10 26 31
26 12 0 16 -5 13 -14z m39 -16 c-5 -19 -23 -29 -23 -12 0 7 20 32 26 32 1 0 0
-9 -3 -20z m157 -28 c0 -13 -12 -22 -22 -16 -10 6 -1 24 13 24 5 0 9 -4 9 -8z
m194 -7 c-4 -8 -11 -15 -16 -15 -6 0 -5 6 2 15 7 8 14 15 16 15 2 0 1 -7 -2
-15z m-264 -5 c0 -6 -5 -19 -12 -29 -10 -16 -13 -17 -29 -3 -17 15 -17 16 -1
28 21 16 42 18 42 4z m137 -22 c-3 -8 -6 -5 -6 6 -1 11 2 17 5 13 3 -3 4 -12
1 -19z m-220 -30 c-3 -8 -6 -5 -6 6 -1 11 2 17 5 13 3 -3 4 -12 1 -19z m107
-3 c-4 -8 -8 -15 -10 -15 -2 0 -4 7 -4 15 0 8 4 15 10 15 5 0 7 -7 4 -15z
m-74 -46 c0 -5 -4 -9 -10 -9 -5 0 -10 7 -10 16 0 8 5 12 10 9 6 -3 10 -10 10
-16z m230 11 c0 -5 -2 -10 -4 -10 -3 0 -8 5 -11 10 -3 6 -1 10 4 10 6 0 11 -4
11 -10z m-302 -85 c-3 -3 -9 2 -12 12 -6 14 -5 15 5 6 7 -7 10 -15 7 -18z
m645 -35 c4 -15 0 -20 -14 -20 -17 0 -18 3 -9 20 6 11 12 20 14 20 2 0 6 -9 9
-20z m284 -2 c-3 -8 -6 -5 -6 6 -1 11 2 17 5 13 3 -3 4 -12 1 -19z m-377 -8
c0 -5 -5 -10 -11 -10 -5 0 -7 5 -4 10 3 6 8 10 11 10 2 0 4 -4 4 -10z m-90
-84 c0 -6 -7 -2 -15 8 -8 11 -15 25 -15 30 0 6 7 2 15 -8 8 -11 15 -25 15 -30z
m141 -9 c-10 -9 -11 -8 -5 6 3 10 9 15 12 12 3 -3 0 -11 -7 -18z m290 -47 c5
0 9 -7 9 -15 0 -8 -4 -15 -10 -15 -5 0 -10 -11 -10 -25 0 -14 4 -25 9 -25 5 0
11 -9 14 -19 3 -14 1 -18 -9 -14 -21 8 -31 33 -29 68 5 70 7 80 12 63 2 -10 9
-18 14 -18z m-297 -26 c3 -8 2 -12 -4 -9 -6 3 -10 10 -10 16 0 14 7 11 14 -7z
m-434 -96 c0 -5 -4 -8 -10 -8 -5 0 -10 10 -10 23 0 18 2 19 10 7 5 -8 10 -18
10 -22z m740 -22 c0 9 3 15 6 11 9 -9 -5 -57 -16 -57 -6 0 -10 9 -10 19 0 11
-4 23 -10 26 -5 3 -10 12 -10 18 1 7 10 1 20 -12 17 -20 20 -20 20 -5z m-13
-98 c-3 -8 -6 -5 -6 6 -1 11 2 17 5 13 3 -3 4 -12 1 -19z m-474 -58 c-3 -12
-8 -19 -11 -16 -5 6 5 36 12 36 2 0 2 -9 -1 -20z m-338 -56 c-5 -87 -15 -95
-15 -12 0 56 5 78 16 78 2 0 2 -30 -1 -66z m397 11 c-5 -18 -6 -18 -12 5 -4
14 -4 31 -2 39 8 22 20 -19 14 -44z m-32 -45 c0 -5 -7 -10 -15 -10 -8 0 -15 5
-15 10 0 6 7 10 15 10 8 0 15 -4 15 -10z m-155 -60 c3 -5 2 -10 -3 -10 -6 0
-9 -15 -7 -32 1 -18 -1 -42 -6 -53 -6 -15 -8 -10 -8 22 -1 23 -6 43 -13 45 -9
3 -8 9 2 21 17 19 26 21 35 7z m145 0 c0 -5 -4 -10 -10 -10 -5 0 -10 5 -10 10
0 6 5 10 10 10 6 0 10 -4 10 -10z m457 -52 c-2 -13 -4 -5 -4 17 -1 22 1 32 4
23 2 -10 2 -28 0 -40z m-461 -89 c3 -89 1 -100 -13 -95 -14 6 -15 -4 -9 -83 6
-78 4 -94 -12 -121 l-19 -31 3 48 c2 27 6 82 10 123 3 41 5 106 4 144 -1 63
15 134 28 121 3 -3 7 -51 8 -106z m-279 39 c-3 -7 -5 -2 -5 12 0 14 2 19 5 13
2 -7 2 -19 0 -25z m580 -30 c-3 -7 -5 -2 -5 12 0 14 2 19 5 13 2 -7 2 -19 0
-25z m-274 7 c-3 -9 -8 -14 -10 -11 -3 3 -2 9 2 15 9 16 15 13 8 -4z m-204
-93 c-9 -41 -19 -53 -20 -24 -1 12 -1 32 -2 45 -1 12 3 29 8 37 13 22 23 -18
14 -58z m-132 -34 c-3 -7 -5 -2 -5 12 0 14 2 19 5 13 2 -7 2 -19 0 -25z m166
-69 c-4 -23 -8 -27 -19 -18 -10 8 -14 3 -20 -25 -3 -20 -4 -47 -2 -61 3 -14 1
-25 -3 -25 -9 0 -11 12 -13 113 -2 50 0 57 17 57 11 0 21 9 25 22 5 22 6 21
13 -6 5 -16 5 -42 2 -57z m297 -5 c0 -8 -4 -14 -10 -14 -5 0 -10 9 -10 21 0
11 5 17 10 14 6 -3 10 -13 10 -21z m231 -267 c-13 -13 -15 14 -3 64 l7 34 3
-44 c2 -24 -2 -49 -7 -54z m-558 10 c-3 -5 -12 -2 -20 6 -9 8 -12 20 -8 27 5
8 11 6 20 -7 7 -10 11 -22 8 -26z m-166 -39 c-14 -29 -31 -70 -37 -91 -18 -58
-24 -36 -9 33 8 35 18 60 26 60 7 0 13 10 13 23 0 13 6 29 12 35 23 23 20 -6
-5 -60z m690 17 c-13 -13 -16 -13 -27 0 -12 15 -4 20 23 16 4 0 7 5 8 12 0 9
2 9 6 0 2 -7 -2 -19 -10 -28z m-440 9 c-3 -3 -12 -4 -19 -1 -8 3 -5 6 6 6 11
1 17 -2 13 -5z m343 -9 c0 -9 -9 -15 -21 -15 -18 0 -19 2 -9 15 7 8 16 15 21
15 5 0 9 -7 9 -15z m317 -47 c-3 -8 -6 -5 -6 6 -1 11 2 17 5 13 3 -3 4 -12 1
-19z m-787 -13 c0 -14 -4 -25 -9 -25 -4 0 -6 11 -3 25 2 14 6 25 8 25 2 0 4
-11 4 -25z m47 -1 c-3 -3 -12 -4 -19 -1 -8 3 -5 6 6 6 11 1 17 -2 13 -5z m403
-14 c0 -5 -7 -10 -15 -10 -8 0 -15 5 -15 10 0 6 7 10 15 10 8 0 15 -4 15 -10z
m324 -189 c-10 -10 -17 12 -20 61 l-3 53 14 -55 c8 -30 12 -56 9 -59z m281
-241 c-28 -12 -37 -12 -30 0 3 6 16 10 28 9 21 0 21 -1 2 -9z m-1129 -27 c-10
-10 -19 5 -10 18 6 11 8 11 12 0 2 -7 1 -15 -2 -18z m1402 -55 c-3 -7 -22 -14
-44 -15 l-39 -2 30 14 c38 18 58 19 53 3z m143 -158 c5 0 9 -4 9 -9 0 -12 -38
-2 -47 12 -4 7 0 8 11 4 10 -4 22 -7 27 -7z m151 -51 c55 -21 75 -35 66 -44
-7 -8 -130 32 -153 49 -19 15 -19 15 7 16 15 0 51 -9 80 -21z m-1932 -384 c0
-8 -7 -15 -15 -15 -26 0 -18 20 13 29 1 1 2 -6 2 -14z m-324 -31 c-4 -12 -10
-14 -17 -7 -5 5 -7 17 -3 27 4 12 10 14 17 7 5 -5 7 -17 3 -27z m2992 -18 c0
-29 -5 -46 -14 -50 -16 -6 -20 39 -4 49 6 3 10 15 10 26 0 10 2 19 4 19 2 0 4
-20 4 -44z m-2822 7 c-10 -10 -19 5 -10 18 6 11 8 11 12 0 2 -7 1 -15 -2 -18z
m2714 -3 c7 11 10 5 10 -23 0 -21 -7 -45 -15 -53 -13 -14 -15 -13 -15 3 0 10
-7 31 -15 47 -19 37 -19 39 5 24 17 -11 22 -10 30 2z m-3190 -82 c-1 -15 -24
-48 -34 -48 -8 0 -8 45 1 53 11 12 33 8 33 -5z m63 -39 c26 -107 29 -152 13
-209 -9 -31 -16 -66 -16 -78 0 -11 -5 -24 -12 -28 -8 -5 -10 15 -5 79 6 71 4
88 -9 101 -9 10 -11 16 -4 16 14 0 5 51 -16 91 -11 22 -11 29 2 48 21 29 37
22 47 -20z m-130 11 c3 -10 -1 -27 -8 -37 -19 -25 -40 -4 -31 31 8 31 31 34
39 6z m3287 -10 c9 -17 8 -20 -10 -20 -13 0 -20 7 -20 20 0 11 4 20 10 20 5 0
14 -9 20 -20z m-3352 -27 c-3 -43 -31 -54 -36 -15 -5 32 4 52 23 52 13 0 15
-9 13 -37z m3392 27 c0 -5 -4 -10 -10 -10 -5 0 -10 5 -10 10 0 6 5 10 10 10 6
0 10 -4 10 -10z m-3459 -22 c4 -40 -2 -70 -17 -85 -15 -16 -17 -16 -30 2 -19
25 -18 60 2 79 19 19 44 21 45 4z m196 -45 c-4 -49 -7 -58 -23 -58 -16 0 -19
7 -18 42 1 41 17 73 36 73 5 0 7 -25 5 -57z m3166 25 c-6 -7 -13 -22 -15 -33
-5 -19 -5 -19 -13 -2 -5 12 -1 24 10 37 19 22 35 19 18 -2z m-3499 -13 c3 -8
12 -15 21 -15 20 0 19 -39 -2 -62 -23 -26 -41 -22 -47 10 -4 21 -2 63 3 80 3
8 20 0 25 -13z m59 -25 c-3 -11 -7 -20 -9 -20 -2 0 -4 9 -4 20 0 11 4 20 9 20
5 0 7 -9 4 -20z m208 -63 c-15 -38 -31 -33 -31 9 0 44 33 79 38 40 2 -12 -2
-34 -7 -49z m3111 -29 c-8 -27 -11 -30 -17 -15 -4 9 -1 32 6 50 17 39 24 15
11 -35z m-3192 42 c0 -5 -4 -10 -10 -10 -5 0 -10 5 -10 10 0 6 5 10 10 10 6 0
10 -4 10 -10z m3257 -52 c-3 -8 -6 -5 -6 6 -1 11 2 17 5 13 3 -3 4 -12 1 -19z
m-3121 -4 c-3 -9 -6 -22 -6 -30 0 -8 -5 -14 -10 -14 -18 0 -23 28 -8 44 17 20
32 20 24 0z m-186 -13 c0 -11 -15 -28 -35 -40 -28 -16 -35 -18 -35 -5 0 8 11
19 24 23 13 5 26 17 29 25 9 22 17 20 17 -3z m-135 -11 c-3 -5 -1 -10 4 -10
24 0 11 -59 -19 -88 -20 -21 -26 -32 -17 -35 9 -3 14 -29 15 -76 2 -60 -1 -73
-15 -78 -10 -4 -32 -22 -49 -40 -34 -35 -54 -42 -54 -18 0 18 -20 20 -20 3 0
-7 -7 -22 -15 -32 -12 -16 -18 -17 -27 -8 -9 9 -9 15 0 24 7 7 12 34 12 60 0
39 3 48 17 48 12 0 14 3 7 10 -8 8 -20 7 -39 0 -22 -8 -30 -8 -37 2 -12 19
-10 26 10 37 16 9 16 10 -1 17 -12 4 -23 0 -32 -12 -17 -24 -28 -14 -19 20 4
16 10 23 18 19 6 -4 19 -9 28 -10 14 -2 16 3 13 25 -5 25 -1 29 47 51 29 14
56 29 60 35 4 6 14 3 27 -9 12 -10 24 -15 28 -12 9 10 32 50 39 70 3 9 11 17
16 17 5 0 6 -4 3 -10z m257 -22 c-9 -9 -12 -7 -12 12 0 19 3 21 12 12 9 -9 9
-15 0 -24z m3275 10 c-3 -8 -6 -5 -6 6 -1 11 2 17 5 13 3 -3 4 -12 1 -19z
m-167 -33 c0 -23 -5 -35 -14 -35 -13 0 -13 15 0 58 7 23 14 12 14 -23z m-3220
-44 c0 -44 -12 -72 -26 -58 -7 6 -12 80 -6 95 2 6 10 12 18 12 10 0 14 -14 14
-49z m46 2 c-10 -10 -19 5 -10 18 6 11 8 11 12 0 2 -7 1 -15 -2 -18z m71 5 c2
-25 -13 -58 -27 -58 -14 0 -12 54 2 68 17 17 24 15 25 -10z m-187 -10 c1 -13
3 -55 5 -95 3 -44 0 -75 -6 -79 -6 -3 -12 -4 -14 -2 -10 9 -11 178 -2 187 15
15 17 14 17 -11z m258 -40 c-2 -31 -8 -53 -16 -56 -10 -3 -12 6 -8 39 3 24 5
50 5 57 1 6 6 12 12 12 6 0 9 -20 7 -52z m739 17 c4 -26 -12 -35 -20 -12 -5
16 4 50 11 42 3 -3 8 -17 9 -30z m53 31 c0 -3 -4 -8 -10 -11 -5 -3 -10 -1 -10
4 0 6 5 11 10 11 6 0 10 -2 10 -4z m-160 -21 c-14 -17 -30 -20 -30 -6 0 5 8
12 18 14 9 3 19 5 21 6 2 0 -2 -6 -9 -14z m2380 -35 c0 -16 -4 -30 -10 -30
-11 0 -14 43 -3 53 11 12 13 8 13 -23z m-3163 -27 c-3 -10 -5 -2 -5 17 0 19 2
27 5 18 2 -10 2 -26 0 -35z m653 22 c0 -8 -4 -15 -10 -15 -5 0 -10 7 -10 15 0
8 5 15 10 15 6 0 10 -7 10 -15z m-419 -82 c-9 -15 -10 -11 -11 19 0 54 14 83
18 36 2 -21 -1 -46 -7 -55z m-268 52 c4 -8 2 -17 -2 -20 -5 -2 -11 4 -14 15
-6 23 8 27 16 5z m3170 -63 c-3 -24 -10 -39 -14 -35 -5 5 -3 25 3 46 14 47 18
43 11 -11z m-3053 23 c-7 -9 -15 -13 -17 -11 -7 7 7 26 19 26 6 0 6 -6 -2 -15z
m51 -28 c-10 -9 -11 -8 -5 6 3 10 9 15 12 12 3 -3 0 -11 -7 -18z m-585 -61
c-4 -31 -12 -56 -17 -56 -10 0 -13 113 -2 124 16 16 25 -16 19 -68z m1221 57
c-9 -9 -20 -13 -24 -9 -4 4 -1 11 7 16 25 16 35 11 17 -7z m-667 -27 c0 -8 -4
-17 -9 -20 -10 -7 -23 19 -14 28 11 11 23 6 23 -8z m2495 -25 c6 -30 -8 -71
-25 -71 -11 0 -14 83 -3 93 13 14 22 7 28 -22z m-2695 -31 c0 -22 -4 -40 -8
-40 -10 0 -14 59 -6 72 10 16 14 7 14 -32z m3329 -34 c-9 -8 -10 -7 -5 7 3 10
7 24 7 30 1 7 3 4 6 -7 3 -10 -1 -23 -8 -30z m-3506 -23 c-13 -9 -23 -23 -24
-32 0 -11 -2 -12 -6 -3 -6 15 37 66 46 56 3 -3 -4 -13 -16 -21z m518 -36 c-17
-17 -24 18 -9 45 l13 23 3 -29 c2 -16 -1 -33 -7 -39z m2973 -23 c-8 -32 -20
-76 -25 -97 -16 -60 -22 -36 -9 30 13 59 40 137 46 130 2 -2 -3 -30 -12 -63z
m-474 5 c0 -24 -4 -38 -10 -34 -5 3 -10 24 -10 46 0 24 4 38 10 34 6 -3 10
-24 10 -46z m-2648 23 c3 -9 1 -26 -3 -37 -6 -15 -8 -11 -8 18 -1 40 4 48 11
19z m-122 -6 c0 -17 -14 -29 -23 -20 -8 8 3 34 14 34 5 0 9 -6 9 -14z m2617
-33 c-3 -10 -5 -2 -5 17 0 19 2 27 5 18 2 -10 2 -26 0 -35z m-2677 -3 c0 -5
-5 -10 -11 -10 -5 0 -7 5 -4 10 3 6 8 10 11 10 2 0 4 -4 4 -10z m-73 -92 c-7
-35 -16 -58 -24 -58 -7 0 -13 -6 -13 -12 0 -7 -5 -5 -11 5 -8 14 -6 24 6 44 9
14 12 22 6 19 -18 -12 -12 14 10 46 29 41 39 24 26 -44z m2800 30 c-3 -8 -6
-5 -6 6 -1 11 2 17 5 13 3 -3 4 -12 1 -19z m-2927 0 c-1 -7 -7 -26 -14 -43
-11 -23 -15 -26 -20 -14 -8 19 9 69 24 69 5 0 10 -6 10 -12z m3531 -15 c-8
-15 -10 -15 -11 -2 0 17 10 32 18 25 2 -3 -1 -13 -7 -23z m-361 -20 c0 -20 -3
-24 -11 -16 -7 7 -9 19 -6 27 10 24 17 19 17 -11z m-330 -18 c0 -14 -4 -25
-10 -25 -11 0 -14 33 -3 43 11 11 13 8 13 -18z m178 -39 c1 -36 -2 -67 -8 -71
-6 -4 -10 19 -10 64 0 89 14 94 18 7z m514 -18 c-16 -16 -36 1 -21 18 6 8 8
14 3 14 -5 0 -2 5 6 10 11 7 16 4 18 -11 2 -12 -1 -26 -6 -31z m-3737 -36
c-11 -11 -27 17 -20 35 6 16 8 16 16 -6 5 -13 7 -26 4 -29z m595 22 c0 -14
-12 -19 -23 -8 -9 9 4 35 14 28 5 -3 9 -12 9 -20z m-485 -7 c6 -12 8 -35 4
-52 -5 -24 -7 -27 -13 -12 -5 9 -18 17 -30 17 -16 0 -21 -6 -22 -28 -1 -44
-13 -82 -25 -82 -8 0 -10 13 -6 38 6 34 5 35 -8 18 -8 -10 -16 -24 -18 -30 -2
-6 -8 -8 -12 -4 -9 9 9 64 20 60 13 -6 25 21 15 34 -7 7 2 19 28 36 47 33 55
33 67 5z m3192 1 c-3 -8 -6 -5 -6 6 -1 11 2 17 5 13 3 -3 4 -12 1 -19z m-3020
-20 c-3 -18 -9 -42 -13 -52 -5 -14 -4 -17 4 -12 7 4 12 3 12 -3 0 -5 -4 -13
-10 -16 -5 -3 -10 -1 -10 4 0 6 -7 11 -15 11 -8 0 -15 7 -15 15 0 8 4 15 9 15
5 0 12 16 15 35 9 45 31 47 23 3z m-103 -15 c-7 -42 -11 -49 -20 -41 -8 9 7
78 18 78 5 0 6 -16 2 -37z m3246 -16 c0 -10 -4 -15 -10 -12 -5 3 -10 18 -10
33 0 21 2 24 10 12 5 -8 10 -23 10 -33z m-3440 3 c0 -5 -5 -10 -11 -10 -5 0
-7 5 -4 10 3 6 8 10 11 10 2 0 4 -4 4 -10z m3526 -71 l-14 -34 -1 32 c-1 17 4
44 11 60 l12 28 3 -26 c2 -15 -3 -42 -11 -60z m-203 30 c-8 -29 -13 -23 -13
14 0 22 3 28 9 18 5 -7 6 -22 4 -32z m-3361 -1 c-7 -7 -12 -8 -12 -2 0 14 12
26 19 19 2 -3 -1 -11 -7 -17z m3148 -4 c0 -8 -5 -12 -10 -9 -6 4 -8 11 -5 16
9 14 15 11 15 -7z m-2860 -26 c0 -16 -3 -19 -11 -11 -6 6 -8 16 -5 22 11 17
16 13 16 -11z m3040 -13 c0 -8 -4 -15 -10 -15 -5 0 -10 7 -10 15 0 8 5 15 10
15 6 0 10 -7 10 -15z m87 -47 c-3 -7 -5 -2 -5 12 0 14 2 19 5 13 2 -7 2 -19 0
-25z m-110 -3 c-14 -29 -27 -33 -27 -7 0 22 8 32 26 32 9 0 10 -6 1 -25z
m-3371 -33 c-12 -11 -18 7 -10 30 l8 23 4 -23 c2 -13 1 -26 -2 -30z m3614 20
c0 -5 -7 -17 -15 -28 -14 -19 -14 -19 -15 2 0 11 3 24 7 27 9 10 23 9 23 -1z
m80 -17 c0 -14 -4 -25 -10 -25 -11 0 -14 33 -3 43 11 11 13 8 13 -18z m-3646
-7 c-13 -46 -23 -55 -24 -22 0 31 6 44 22 44 5 0 6 -10 2 -22z m176 -2 c0 -8
-4 -18 -10 -21 -5 -3 -10 3 -10 14 0 12 5 21 10 21 6 0 10 -6 10 -14z m116
-24 c-14 -14 -16 -14 -16 -1 0 20 23 44 29 28 2 -6 -4 -18 -13 -27z m-256 3
c0 -14 -4 -25 -10 -25 -5 0 -10 11 -10 25 0 14 5 25 10 25 6 0 10 -11 10 -25z
m-93 -37 c-3 -8 -6 -5 -6 6 -1 11 2 17 5 13 3 -3 4 -12 1 -19z"/>
<path d="M1426 794 c-5 -14 -4 -15 9 -4 17 14 19 20 6 20 -5 0 -12 -7 -15 -16z"/>
<path d="M1374 773 c-13 -21 16 -106 39 -111 17 -3 47 49 47 81 0 18 -2 17
-27 -7 -30 -30 -40 -25 -45 22 -3 28 -5 30 -14 15z"/>
<path d="M5911 5818 c0 -9 -4 -25 -7 -35 -5 -14 -4 -15 5 -7 7 7 11 22 8 35
-2 13 -5 16 -6 7z"/>
<path d="M3715 4550 c-18 -19 -18 -20 3 -20 25 0 34 11 23 28 -5 9 -12 7 -26
-8z"/>
<path d="M5286 2418 c-2 -7 -10 -42 -16 -78 -14 -74 -25 -100 -44 -100 -23 0
-78 -60 -68 -73 5 -7 9 -27 7 -44 -1 -25 2 -33 15 -33 24 0 40 -21 40 -52 0
-15 3 -27 8 -27 26 4 31 -3 26 -33 -4 -18 -13 -38 -20 -44 -8 -6 -14 -26 -14
-43 0 -31 -1 -32 -35 -25 -37 7 -48 -9 -24 -33 18 -18 0 -33 -41 -33 -56 0
-70 8 -70 40 0 27 -2 28 -37 24 -21 -3 -50 -10 -65 -14 -22 -7 -30 -5 -42 11
-8 11 -17 16 -20 11 -9 -15 -38 -4 -76 28 -35 30 -77 44 -86 28 -3 -5 -12 -3
-21 4 -9 7 -30 13 -48 14 l-32 1 -1 -71 c0 -39 -2 -84 -4 -101 -2 -23 2 -32
20 -40 14 -6 22 -19 23 -35 0 -25 0 -25 9 -2 10 24 22 27 51 12 14 -8 19 -21
19 -53 0 -64 -27 -228 -39 -240 -6 -6 -11 -20 -11 -30 0 -15 6 -11 24 16 19
28 27 56 33 124 6 71 9 81 14 53 5 -29 7 -31 9 -10 7 61 4 86 -10 98 -13 11
-12 12 5 8 17 -5 20 -1 19 24 0 17 -4 33 -7 37 -4 3 -7 13 -7 22 1 20 40 -24
40 -45 0 -8 9 -14 19 -14 15 0 18 5 14 23 -4 21 -4 22 11 3 9 -11 16 -15 16
-9 0 7 20 10 53 9 56 -2 81 -11 71 -28 -4 -6 8 -9 32 -6 34 3 39 0 42 -20 4
-29 28 -23 25 6 -2 18 2 21 31 20 18 -1 38 2 45 6 8 5 14 0 18 -14 3 -11 11
-19 18 -17 6 3 17 -4 23 -14 7 -10 17 -19 22 -19 17 0 11 29 -9 42 -18 11 -17
13 10 42 16 17 29 39 29 48 0 9 2 22 3 30 2 7 2 10 0 5 -3 -4 -8 -5 -13 -2 -4
3 2 26 15 53 17 34 20 50 12 60 -8 11 -5 12 16 7 18 -5 27 -3 27 5 0 6 16 44
36 83 39 78 57 127 46 127 -4 0 -17 -21 -29 -47 -12 -27 -29 -57 -37 -68 -15
-19 -15 -19 -16 13 0 18 5 43 11 54 6 12 12 43 12 70 1 37 -4 51 -19 62 -19
14 -19 15 0 48 l19 33 -26 -24 -27 -24 0 81 c0 44 -5 84 -10 87 -6 3 -12 0
-14 -7z m48 -443 c-4 -8 -8 -15 -10 -15 -2 0 -4 7 -4 15 0 8 4 15 10 15 5 0 7
-7 4 -15z m-434 -145 c0 -13 -30 -13 -50 0 -11 7 -7 10 18 10 17 0 32 -4 32
-10z m341 -58 c-5 -10 -17 -25 -26 -32 -15 -12 -16 -11 -13 6 4 24 19 43 36
44 9 0 10 -5 3 -18z"/>
<path d="M5365 2320 c-3 -5 3 -10 15 -10 12 0 18 5 15 10 -3 6 -10 10 -15 10
-5 0 -12 -4 -15 -10z"/>
<path d="M5444 2295 c-6 -26 -29 -34 -37 -12 -3 6 -6 2 -6 -11 -1 -12 6 -25
14 -28 9 -4 15 -20 16 -38 1 -27 3 -24 19 24 11 30 19 63 19 73 1 26 -18 20
-25 -8z"/>
<path d="M4873 2276 c25 -19 7 -27 -34 -16 -49 14 -69 13 -63 -5 5 -12 25 -15
95 -14 51 0 87 5 83 10 -3 5 -11 9 -18 9 -8 0 -19 7 -26 15 -7 8 -22 15 -34
15 -20 -1 -20 -1 -3 -14z"/>
<path d="M4963 2215 c-17 -18 8 -34 43 -27 31 6 31 20 -2 32 -30 12 -26 12
-41 -5z"/>
<path d="M4964 2159 c-8 -13 16 -31 33 -24 7 2 10 -2 7 -9 -6 -15 24 -26 74
-26 43 0 41 17 -3 26 -37 7 -48 24 -16 24 11 0 22 4 25 9 3 4 -21 9 -54 10
-35 1 -61 -3 -66 -10z"/>
<path d="M4930 2144 c0 -8 5 -12 10 -9 6 3 10 10 10 16 0 5 -4 9 -10 9 -5 0
-10 -7 -10 -16z"/>
<path d="M2260 2135 c-14 -8 -41 -15 -60 -15 -19 -1 -57 -10 -85 -20 l-50 -18
56 -1 c42 -1 58 3 63 14 7 20 26 19 26 -1 0 -21 40 -9 59 17 7 10 20 19 28 19
13 0 13 -3 3 -15 -10 -12 -10 -15 4 -15 20 0 57 31 50 42 -8 13 -67 9 -94 -7z"/>
<path d="M5160 2044 c0 -8 -4 -12 -10 -9 -5 3 -10 2 -10 -4 0 -19 40 -34 56
-20 19 15 18 35 -2 43 -25 10 -34 7 -34 -10z"/>
<path d="M4720 1971 c-6 -12 -9 -21 -8 -22 2 0 16 -2 31 -4 24 -3 28 -1 25 18
-4 29 -34 34 -48 8z"/>
<path d="M5166 1981 c-3 -5 1 -12 10 -15 20 -8 29 -1 19 13 -8 13 -22 14 -29
2z"/>
<path d="M4916 1905 c4 -8 12 -15 19 -15 7 0 15 7 19 15 4 11 -1 15 -19 15
-18 0 -23 -4 -19 -15z"/>
<path d="M5281 1688 c6 -21 5 -34 -2 -39 -14 -8 19 -42 36 -35 7 2 21 -1 31
-9 17 -12 18 -16 2 -81 -18 -76 -17 -91 3 -44 14 31 14 31 74 25 33 -3 85 -1
115 5 106 21 120 22 135 10 9 -7 18 -10 22 -7 3 4 -10 14 -31 22 -30 13 -35
19 -30 39 5 20 -2 26 -68 53 -75 32 -263 93 -284 93 -9 0 -10 -8 -3 -32z m196
-64 c-3 -3 -12 -4 -19 -1 -8 3 -5 6 6 6 11 1 17 -2 13 -5z m88 -44 c3 -5 1
-10 -4 -10 -6 0 -11 5 -11 10 0 6 2 10 4 10 3 0 8 -4 11 -10z"/>
<path d="M4663 1635 c0 -22 2 -30 4 -17 2 12 2 30 0 40 -3 9 -5 -1 -4 -23z"/>
<path d="M5128 1593 c-21 -5 -23 -14 -6 -31 21 -21 50 -15 46 10 -3 23 -13 28
-40 21z"/>
<path d="M1297 1540 c-6 -24 8 -36 17 -14 8 22 7 34 -3 34 -5 0 -11 -9 -14
-20z"/>
<path d="M1470 1467 c-3 -3 -38 -7 -79 -11 -41 -3 -77 -9 -80 -12 -3 -4 30 -4
73 0 60 5 81 4 87 -6 6 -9 11 -10 19 -2 6 6 32 9 62 6 40 -4 50 -2 46 9 -3 9
-24 15 -64 17 -33 2 -62 1 -64 -1z"/>
<path d="M1660 1451 c0 -26 15 -35 17 -11 1 11 -2 22 -8 25 -5 4 -9 -3 -9 -14z"/>
<path d="M5302 1415 c-17 -18 -19 -25 -9 -33 9 -8 16 -3 26 19 17 39 11 44
-17 14z"/>
<path d="M5095 1420 c3 -5 14 -10 23 -10 15 0 15 2 2 10 -20 13 -33 13 -25 0z"/>
<path d="M4530 1396 c0 -14 5 -26 10 -26 6 0 10 9 10 19 0 11 -4 23 -10 26 -6
4 -10 -5 -10 -19z"/>
<path d="M1470 1385 c0 -8 4 -15 9 -15 5 0 11 7 15 15 3 9 0 15 -9 15 -8 0
-15 -7 -15 -15z"/>
<path d="M1387 1337 c-16 -24 -21 -26 -77 -22 -42 3 -60 0 -60 -8 0 -8 24 -12
74 -12 79 0 100 11 86 49 -6 17 -8 16 -23 -7z"/>
<path d="M1598 1353 c7 -3 16 -2 19 1 4 3 -2 6 -13 5 -11 0 -14 -3 -6 -6z"/>
<path d="M1550 1339 c0 -5 5 -7 10 -4 6 3 10 8 10 11 0 2 -4 4 -10 4 -5 0 -10
-5 -10 -11z"/>
<path d="M1469 1338 c-4 -21 -8 -68 -5 -68 10 0 24 60 15 65 -5 4 -9 5 -10 3z"/>
<path d="M1662 1310 c0 -19 2 -27 5 -17 2 9 2 25 0 35 -3 9 -5 1 -5 -18z"/>
<path d="M4368 1240 c-5 -30 3 -46 16 -33 9 10 7 63 -3 63 -5 0 -11 -14 -13
-30z"/>
<path d="M970 1245 c0 -8 5 -15 10 -15 6 0 10 7 10 15 0 8 -4 15 -10 15 -5 0
-10 -7 -10 -15z"/>
<path d="M1360 1240 c0 -5 5 -10 10 -10 6 0 10 5 10 10 0 6 -4 10 -10 10 -5 0
-10 -4 -10 -10z"/>
<path d="M1571 1224 c0 -11 3 -14 6 -6 3 7 2 16 -1 19 -3 4 -6 -2 -5 -13z"/>
<path d="M1540 1216 c0 -9 5 -16 10 -16 6 0 10 4 10 9 0 6 -4 13 -10 16 -5 3
-10 -1 -10 -9z"/>
<path d="M1132 1200 c0 -14 2 -19 5 -12 2 6 2 18 0 25 -3 6 -5 1 -5 -13z"/>
<path d="M862 1165 c0 -16 2 -22 5 -12 2 9 2 23 0 30 -3 6 -5 -1 -5 -18z"/>
<path d="M1355 1169 c-4 -12 -2 -26 4 -32 8 -8 11 -2 11 21 0 37 -6 41 -15 11z"/>
<path d="M982 1110 c0 -14 2 -19 5 -12 2 6 2 18 0 25 -3 6 -5 1 -5 -13z"/>
<path d="M1353 1088 c-13 -6 -23 -15 -23 -19 0 -15 21 -21 34 -9 11 8 15 8 19
-2 3 -7 6 -1 6 15 1 29 -3 31 -36 15z"/>
<path d="M1287 1083 c-12 -11 -8 -23 8 -23 8 0 15 7 15 15 0 16 -12 20 -23 8z"/>
<path d="M1347 1024 c-4 -4 -7 -14 -7 -23 0 -11 3 -12 11 -4 6 6 10 16 7 23
-2 6 -7 8 -11 4z"/>
<path d="M5951 944 c0 -11 3 -14 6 -6 3 7 2 16 -1 19 -3 4 -6 -2 -5 -13z"/>
<path d="M4250 896 c0 -8 3 -22 6 -31 5 -13 8 -14 15 -3 14 21 10 48 -6 48 -8
0 -15 -6 -15 -14z"/>
<path d="M1015 883 c-35 -5 -62 -27 -71 -57 -3 -11 -15 -31 -26 -42 -11 -12
-15 -24 -10 -28 5 -3 15 1 22 9 7 8 19 15 27 15 11 0 13 7 9 24 -4 16 0 30 10
40 21 21 46 20 42 -1 -1 -10 1 -24 6 -32 7 -10 12 -5 22 19 15 36 18 61 7 59
-5 -1 -21 -4 -38 -6z"/>
<path d="M1101 871 c-13 -23 -14 -31 -3 -31 13 0 32 39 22 45 -5 3 -14 -3 -19
-14z"/>
<path d="M4426 853 c-6 -14 -5 -15 5 -6 7 7 10 15 7 18 -3 3 -9 -2 -12 -12z"/>
<path d="M815 730 c-3 -5 1 -10 9 -10 9 0 16 5 16 10 0 6 -4 10 -9 10 -6 0
-13 -4 -16 -10z"/>
<path d="M946 714 c-4 -9 -4 -19 -1 -22 2 -3 7 3 11 12 4 9 4 19 1 22 -2 3 -7
-3 -11 -12z"/>
<path d="M780 710 c-9 -6 -10 -10 -3 -10 6 0 15 5 18 10 8 12 4 12 -15 0z"/>
<path d="M885 694 c-9 -14 -14 -33 -10 -42 6 -15 8 -15 21 2 12 18 20 66 10
66 -2 0 -11 -12 -21 -26z"/>
<path d="M5290 655 c0 -8 4 -15 9 -15 5 0 11 7 15 15 3 9 0 15 -9 15 -8 0 -15
-7 -15 -15z"/>
<path d="M803 646 c-9 -11 -8 -15 7 -19 12 -3 20 2 23 14 6 22 -12 25 -30 5z"/>
<path d="M5561 594 c0 -11 3 -14 6 -6 3 7 2 16 -1 19 -3 4 -6 -2 -5 -13z"/>
<path d="M653 588 c-6 -7 -13 -21 -16 -30 -4 -13 -2 -15 11 -11 26 9 42 24 42
39 0 17 -24 18 -37 2z"/>
<path d="M812 580 c0 -14 2 -19 5 -12 2 6 2 18 0 25 -3 6 -5 1 -5 -13z"/>
<path d="M5551 499 c-1 -25 4 -39 14 -43 17 -6 20 5 6 20 -5 5 -11 20 -14 34
-3 19 -5 16 -6 -11z"/>
<path d="M798 435 c-3 -14 -1 -25 3 -25 5 0 9 11 9 25 0 14 -2 25 -4 25 -2 0
-6 -11 -8 -25z"/>
<path d="M5144 216 c-4 -9 -13 -15 -20 -12 -18 7 -39 -35 -48 -94 -5 -31 -17
-55 -39 -78 -19 -20 -25 -30 -14 -27 9 4 17 11 17 16 0 5 5 9 10 9 6 0 10 -7
10 -15 0 -8 9 -15 20 -15 13 0 22 10 28 33 l9 32 19 -32 c10 -18 22 -33 27
-33 14 0 7 83 -9 101 -14 16 -15 25 -4 69 12 49 7 81 -6 46z"/>
</g>
</svg>
